<svg width="217" height="139" viewBox="0 0 217 139" fill="none" xmlns="http://www.w3.org/2000/svg">
<path d="M20.5 0.625H196.505C201.802 0.625 206.885 2.74479 210.635 6.52083C214.38 10.2917 216.484 15.4115 216.484 20.7448V57.5104C216.484 62.8438 214.38 67.9635 210.635 71.7344C206.885 75.5052 201.802 77.625 196.505 77.625H20.5C15.2032 77.625 10.1198 75.5052 6.37504 71.7344C2.62504 67.9635 0.520874 62.8438 0.520874 57.5104V20.7448C0.520874 15.4115 2.62504 10.2917 6.37504 6.52083C10.1198 2.74479 15.2032 0.625 20.5 0.625Z" fill="#01A6FF"/>
<path d="M37.8206 18.4147H21.3623V16.4355H56.3831V18.4147H39.9248V61.2272H37.8206V18.4147Z" fill="#E9E9E6"/>
<path d="M96.3198 61.2272L85.2365 45.8105C83.7886 46.0605 82.174 46.1855 80.3823 46.1855H67.0073V61.2272H64.8198V16.4355H80.3823C85.9657 16.4355 90.325 17.748 93.4657 20.373C96.6011 22.9876 98.174 26.6178 98.174 31.2689C98.174 34.8522 97.2417 37.8522 95.3823 40.2689C93.5177 42.6751 90.8667 44.347 87.424 45.2897L98.8823 61.2272H96.3198ZM80.5073 44.2064C85.4917 44.2064 89.325 43.0918 92.0073 40.8522C94.7 38.6022 96.049 35.4095 96.049 31.2689C96.049 27.1751 94.7 24.0084 92.0073 21.7688C89.325 19.5345 85.4917 18.4147 80.5073 18.4147H67.0073V44.2064H80.5073Z" fill="#E9E9E6"/>
<path d="M128.001 61.4772C122.444 61.4772 118.115 59.8626 115.022 56.623C111.938 53.373 110.397 48.6178 110.397 42.3522V16.4355H112.563V42.2897C112.563 47.998 113.881 52.3001 116.522 55.1855C119.173 58.0605 123.001 59.498 128.001 59.498C132.944 59.498 136.751 58.0605 139.418 55.1855C142.084 52.3001 143.418 47.998 143.418 42.2897V16.4355H145.522V42.3522C145.522 48.6178 143.985 53.373 140.918 56.623C137.845 59.8626 133.543 61.4772 128.001 61.4772Z" fill="#E9E9E6"/>
<path d="M191.794 59.248V61.2272H161.524V16.4355H190.899V18.4147H163.711V37.4772H188.024V39.4772H163.711V59.248H191.794Z" fill="#E9E9E6"/>
<path d="M36.6272 138.544C32.0543 138.544 27.9241 137.554 24.2314 135.564C20.5491 133.58 17.6532 130.83 15.5439 127.314C13.4293 123.788 12.3772 119.809 12.3772 115.377C12.3772 110.934 13.4293 106.955 15.5439 103.439C17.6532 99.9135 20.5491 97.1635 24.2314 95.1895C27.9241 93.2051 32.0751 92.2103 36.6897 92.2103C40.5751 92.2103 44.0855 92.8926 47.2105 94.252C50.3459 95.6166 52.9866 97.5801 55.1272 100.148L48.4605 106.294C45.4293 102.794 41.6793 101.044 37.2105 101.044C34.4293 101.044 31.9501 101.658 29.773 102.877C27.6064 104.085 25.9084 105.783 24.6897 107.96C23.4814 110.127 22.8772 112.601 22.8772 115.377C22.8772 118.143 23.4814 120.617 24.6897 122.794C25.9084 124.976 27.6064 126.679 29.773 127.898C31.9501 129.106 34.4293 129.71 37.2105 129.71C41.6793 129.71 45.4293 127.939 48.4605 124.398L55.1272 130.544C52.9866 133.143 50.3407 135.127 47.1897 136.502C44.0334 137.861 40.5126 138.544 36.6272 138.544Z" fill="#E9E9E6"/>
<path d="M91.7251 138.544C87.0845 138.544 82.897 137.544 79.1626 135.544C75.423 133.533 72.5011 130.768 70.3918 127.252C68.2772 123.726 67.2251 119.768 67.2251 115.377C67.2251 110.976 68.2772 107.018 70.3918 103.502C72.5011 99.9916 75.423 97.2312 79.1626 95.2312C82.897 93.2207 87.0845 92.2103 91.7251 92.2103C96.3761 92.2103 100.558 93.2207 104.267 95.2312C107.986 97.2312 110.913 99.9916 113.038 103.502C115.173 107.018 116.246 110.976 116.246 115.377C116.246 119.768 115.173 123.726 113.038 127.252C110.913 130.768 107.986 133.533 104.267 135.544C100.558 137.544 96.3761 138.544 91.7251 138.544ZM91.7251 129.71C94.3761 129.71 96.7668 129.106 98.8918 127.898C101.027 126.679 102.704 124.976 103.913 122.794C105.131 120.617 105.746 118.143 105.746 115.377C105.746 112.601 105.131 110.127 103.913 107.96C102.704 105.783 101.027 104.085 98.8918 102.877C96.7668 101.658 94.3761 101.044 91.7251 101.044C89.0845 101.044 86.6938 101.658 84.5584 102.877C82.4334 104.085 80.7563 105.783 79.5376 107.96C78.3293 110.127 77.7251 112.601 77.7251 115.377C77.7251 118.143 78.3293 120.617 79.5376 122.794C80.7563 124.976 82.4334 126.679 84.5584 127.898C86.6938 129.106 89.0845 129.71 91.7251 129.71Z" fill="#E9E9E6"/>
<path d="M131.99 92.9811H142.365V137.773H131.99V92.9811Z" fill="#E9E9E6"/>
<path d="M202.001 92.9811V137.773H193.501L171.147 110.564V137.773H160.917V92.9811H169.501L191.772 120.169V92.9811H202.001Z" fill="#E9E9E6"/>
</svg>
